<svg width="176" height="32" viewBox="0 0 176 32" xmlns="http://www.w3.org/2000/svg" xmlns:xlink="http://www.w3.org/1999/xlink"><title>Logo</title><g transform="translate(-1859 -348)"><clipPath id="a" clip-rule="evenodd"><path d="M1859 348h176v32h-176v-32z" fill="#FFF"/></clipPath><g clip-path="url(#a)"><g transform="translate(1900 349)" fill="#242424"><use xlink:href="#b"/><use xlink:href="#c"/><use xlink:href="#d"/><use xlink:href="#e"/><use xlink:href="#f"/><use xlink:href="#g"/><use xlink:href="#h"/><use xlink:href="#i"/></g><use xlink:href="#j" transform="translate(1859 348)" fill="#FF5A77"/></g></g><defs><path id="b" d="M9.907 4.53c-.758.032-1.31.116-1.66.25-.337.137-.572.387-.705.75-.123.366-.185.95-.185 1.75v16.25c0 .69.047 1.19.14 1.5.1.303.285.512.552.626.275.104.705.157 1.29.157h1.535c.952 0 1.823-.297 2.61-.89.8-.595 1.466-1.428 1.998-2.5.543-1.084.916-2.334 1.12-3.75h.723c-.06.728-.092 1.666-.092 2.81 0 2.053.072 3.74.215 5.064-1.424-.063-3.826-.094-7.205-.094-4.567 0-7.982.03-10.245.094v-.64c.696-.032 1.203-.115 1.52-.25.318-.136.533-.386.646-.75.123-.365.184-.95.184-1.75V7.28c0-.8-.06-1.384-.184-1.75-.113-.363-.328-.613-.645-.75-.317-.134-.824-.218-1.52-.25v-.64c1.055.063 2.708.094 4.96.094 2.13 0 3.78-.03 4.947-.093v.64z"/><path id="c" d="M27.617 13.047c0-.886-.21-1.584-.63-2.094-.41-.51-1.054-.765-1.935-.765-.41 0-.82.067-1.23.203-.408.126-.746.318-1.012.58.583.197 1.04.51 1.367.936.328.417.49.943.49 1.578 0 .438-.106.834-.32 1.188-.206.344-.503.62-.892.828-.39.198-.835.297-1.336.297-.677 0-1.22-.235-1.63-.703-.4-.47-.6-1.057-.6-1.766 0-1.104.585-2 1.752-2.687 1.28-.718 2.878-1.078 4.793-1.078 2.15 0 3.68.48 4.592 1.438.44.448.738 1.005.89 1.672.155.666.232 1.6.232 2.797v8.702c0 .52.045.89.137 1.11.102.208.276.312.522.312.337 0 .726-.183 1.167-.547l.322.547c-.482.406-1.004.703-1.568.89-.563.188-1.24.282-2.027.282-1.065 0-1.833-.24-2.304-.72-.47-.478-.706-1.103-.706-1.874-.512.864-1.182 1.515-2.012 1.953-.83.427-1.715.64-2.657.64-1.198 0-2.16-.317-2.888-.953-.717-.645-1.075-1.54-1.075-2.687 0-1.115.358-2.037 1.075-2.766.717-.73 1.828-1.376 3.333-1.938l1.598-.61c.9-.354 1.55-.713 1.95-1.078.4-.364.6-.765.6-1.203v-2.483zm0 3.797c-.133.23-.353.468-.66.718-.297.24-.727.537-1.29.89-.666.47-1.188 1-1.567 1.595-.38.583-.568 1.312-.568 2.187 0 .834.18 1.46.537 1.875.358.406.83.61 1.412.61.83 0 1.542-.44 2.136-1.314v-6.562z"/><path id="d" d="M63.57 4.53c-.707.032-1.22.116-1.536.25-.317.137-.538.387-.66.75-.113.366-.17.95-.17 1.75v15.876c0 .802.057 1.386.17 1.75.122.365.343.615.66.75.328.136.84.22 1.536.25v.64c-1.167-.062-2.816-.093-4.946-.093-2.242 0-3.896.03-4.96.094v-.64c.756-.032 1.304-.115 1.642-.25.348-.136.584-.386.707-.75.133-.365.2-.95.2-1.75V6.42l-7.588 20.156h-.507l-8.494-20.61V21.3c0 1.26.066 2.186.2 2.78.132.584.404 1.01.813 1.28.42.272 1.1.454 2.043.548v.64c-.81-.062-1.94-.093-3.394-.093-1.157 0-2.07.03-2.734.094v-.64c.686-.095 1.187-.272 1.505-.532.328-.27.548-.677.66-1.22.123-.55.185-1.374.185-2.468V7.28c0-.8-.062-1.384-.185-1.75-.112-.363-.327-.613-.645-.75-.317-.134-.824-.218-1.52-.25v-.64c.665.063 1.577.094 2.734.094 1.925 0 3.58-.03 4.96-.093l6.345 15.547 5.807-15.453h2.227c2.13 0 3.78-.03 4.946-.093v.64z"/><path id="e" d="M72.9 13.047c0-.886-.21-1.584-.63-2.094-.41-.51-1.055-.765-1.936-.765-.41 0-.82.067-1.23.203-.41.126-.746.318-1.013.58.585.197 1.04.51 1.368.936.328.417.492.943.492 1.578 0 .438-.108.834-.323 1.188-.204.344-.5.62-.89.828-.39.198-.835.297-1.337.297-.676 0-1.218-.235-1.628-.703-.4-.47-.6-1.057-.6-1.766 0-1.104.585-2 1.752-2.687 1.28-.718 2.877-1.078 4.792-1.078 2.15 0 3.682.48 4.593 1.438.44.448.736 1.005.89 1.672.153.666.23 1.6.23 2.797v8.702c0 .52.046.89.14 1.11.1.208.275.312.52.312.34 0 .728-.183 1.168-.547l.323.547c-.48.406-1.003.703-1.566.89-.563.188-1.24.282-2.027.282-1.066 0-1.834-.24-2.305-.72-.47-.478-.706-1.103-.706-1.874-.512.864-1.183 1.515-2.012 1.953-.83.427-1.715.64-2.658.64-1.198 0-2.16-.317-2.887-.953-.718-.645-1.076-1.54-1.076-2.687 0-1.115.358-2.037 1.075-2.766.715-.73 1.827-1.376 3.332-1.938l1.597-.61c.9-.354 1.55-.713 1.95-1.078.4-.364.6-.765.6-1.203v-2.483zm0 3.797c-.134.23-.354.468-.66.718-.298.24-.728.537-1.292.89-.665.47-1.188 1-1.566 1.595-.38.583-.57 1.312-.57 2.187 0 .834.18 1.46.54 1.875.357.406.828.61 1.412.61.83 0 1.54-.44 2.135-1.314v-6.562z"/><path id="f" d="M87.046 12.625c.4-.906.972-1.64 1.72-2.203.758-.573 1.613-.86 2.565-.86.636 0 1.17.14 1.6.422.43.282.746.646.95 1.094.206.438.308.912.308 1.422 0 .792-.225 1.438-.676 1.938-.45.5-1.044.75-1.78.75-.718 0-1.287-.183-1.706-.547-.41-.374-.615-.874-.615-1.5 0-1.02.462-1.854 1.384-2.5-.133-.03-.26-.046-.384-.046-.144 0-.308.026-.492.078-.532.083-1.02.344-1.46.78-.44.428-.788.944-1.044 1.548-.245.604-.368 1.193-.368 1.766v8.484c0 .99.235 1.677.706 2.063.47.375 1.224.562 2.258.562v.672c-2.62-.084-4.29-.125-5.007-.125-.666 0-2.166.04-4.5.125v-.672c.5 0 .895-.068 1.182-.203.297-.136.507-.37.63-.703.133-.335.2-.798.2-1.392V13.484c0-.99-.15-1.703-.446-2.14-.298-.448-.82-.672-1.568-.672V10c.666.063 1.316.094 1.95.094 1.855 0 3.385-.146 4.594-.438v2.97z"/><path id="g" d="M99.272 1.75c.87 0 1.562.22 2.074.656.522.438.783 1.037.783 1.797 0 .77-.262 1.375-.784 1.813-.512.437-1.203.656-2.074.656-.89 0-1.592-.22-2.104-.656-.512-.438-.768-1.042-.768-1.813 0-.76.256-1.36.768-1.797.512-.437 1.213-.656 2.104-.656zm2.458 21.828c0 .594.067 1.057.2 1.39.133.334.343.57.63.704.286.135.68.203 1.182.203v.672c-2.09-.084-3.48-.125-4.178-.125-.665 0-2.125.04-4.377.125v-.672c.5 0 .896-.068 1.182-.203.296-.136.506-.37.63-.703.132-.335.2-.798.2-1.392V13.484c0-.99-.15-1.703-.447-2.14-.297-.448-.82-.672-1.566-.672V10c.665.063 1.315.094 1.95.094 1.854 0 3.385-.146 4.593-.438v13.922z"/><path id="h" d="M110.316 16.656c-.03.313-.046.813-.046 1.5 0 1.417.195 2.594.584 3.532.39.927.89 1.61 1.505 2.046.624.427 1.29.64 1.996.64 1.73 0 3.118-.853 4.163-2.56l.552.186c-.267.875-.68 1.693-1.245 2.453-.553.75-1.26 1.365-2.12 1.844-.85.47-1.822.703-2.918.703-1.445 0-2.714-.313-3.81-.938-1.085-.625-1.935-1.572-2.55-2.843-.604-1.282-.906-2.87-.906-4.767 0-1.937.328-3.568.983-4.89.655-1.334 1.562-2.334 2.72-3 1.156-.667 2.492-1 4.008-1 3.942 0 5.913 2.364 5.913 7.093h-8.832zm4.87-.61c.03-1.666-.14-3.05-.507-4.155-.36-1.104-.908-1.656-1.645-1.656-.747 0-1.372.474-1.874 1.422-.49.938-.792 2.4-.905 4.39h4.93zM110.9 7.095c.604-1.115 1.08-2.13 1.428-3.047.36-.927.63-1.62.815-2.078.194-.46.445-.866.752-1.22.174-.24.39-.422.645-.547.267-.135.538-.203.814-.203.43 0 .8.135 1.106.406.39.313.584.724.584 1.235 0 .47-.16.902-.476 1.298-.328.416-.814.86-1.46 1.328-.644.468-1.26.927-1.843 1.375-.583.438-1.26 1.016-2.027 1.735l-.338-.28z"/><path id="i" d="M126.168 16.656c-.03.313-.046.813-.046 1.5 0 1.417.194 2.594.584 3.532.39.927.89 1.61 1.505 2.046.625.427 1.29.64 1.998.64 1.73 0 3.118-.853 4.162-2.56l.553.186c-.266.875-.68 1.693-1.244 2.453-.554.75-1.26 1.365-2.12 1.844-.85.47-1.823.703-2.92.703-1.443 0-2.713-.313-3.808-.938-1.086-.625-1.936-1.572-2.55-2.843-.604-1.282-.906-2.87-.906-4.767 0-1.937.327-3.568.983-4.89.654-1.334 1.56-2.334 2.717-3 1.157-.667 2.494-1 4.01-1 3.942 0 5.913 2.364 5.913 7.093h-8.832zm4.87-.61c.03-1.666-.14-3.05-.508-4.155-.358-1.104-.906-1.656-1.643-1.656-.748 0-1.373.474-1.874 1.422-.492.938-.794 2.4-.907 4.39h4.93z"/><path id="j" d="M7.045 12.62c-.425-.71-.743-1.42-.955-2.13-.213-.738-.32-1.45-.32-2.13 0-2.187.824-4.07 2.47-5.656C9.883 1.12 11.687.232 13.65.04c.132-.026.252-.04.358-.04h.796c.053 0 .106.014.16.04h.198c1.486.165 2.587.752 3.304 1.763.743.983 1.127 2.062 1.154 3.237 0 1.065-.32 2.062-.955 2.99-.637.902-1.592 1.476-2.866 1.722.107.054.2.123.28.204.08.055.172.11.278.164.504.383.97.765 1.393 1.148.452.355.89.696 1.315 1.024.238.164.477.34.716.533.24.164.48.314.717.45l.08-.246c.053-.11.093-.22.12-.328.16-.465.318-1.01.477-1.64.186-.627.398-1.27.637-1.925.425-1.175 1.01-2.254 1.752-3.237.743-.983 1.818-1.53 3.224-1.64h.398c1.353-.026 2.494.425 3.423 1.353.93.93 1.393 2.022 1.393 3.278 0 .192-.013.397-.04.616-.026.218-.066.437-.12.655-.105.302-.238.616-.397.944-.16.3-.358.6-.597.9-.32.356-.677.63-1.075.82-.397.165-.808.246-1.233.246-.85 0-1.63-.273-2.348-.82-.717-.573-1.09-1.31-1.115-2.212 0-.437.106-.887.318-1.352.212-.49.57-.997 1.075-1.516.477-.49.85-.9 1.114-1.23.292-.327.133-.573-.477-.736h-.16c-.026-.028-.066-.04-.12-.04-.052-.03-.105-.042-.158-.042h-.12c-1.22 0-2.255.833-3.104 2.5-.823 1.638-1.592 3.74-2.31 6.31 1.726.955 3.066 2.21 4.02 3.768.957 1.53 1.5 3.128 1.633 4.794.027.11.04.232.04.37v.368c0 2.267-.836 4.302-2.508 6.105-1.67 1.775-4.272 2.663-7.8 2.663h-.677c-.21 0-.437-.014-.676-.04v-.984c.133.027.252.04.358.04h.36c1.564 0 2.758-.49 3.58-1.474.823-.984 1.235-2.063 1.235-3.237V26.1c-.027-.765-.24-1.49-.637-2.172-.398-.71-.982-1.243-1.752-1.598-.796 2.568-1.99 4.453-3.582 5.655-1.592 1.2-3.263 1.87-5.015 2.007-.13.028-.264.04-.397.04h-.358c-1.194 0-2.348-.217-3.462-.654-1.115-.437-2.07-1.066-2.866-1.885-.955-.983-1.632-1.953-2.03-2.91C.2 23.63 0 22.686 0 21.758c0-1.503.41-2.882 1.234-4.14.822-1.282 1.725-2.334 2.706-3.154.584-.49 1.155-.887 1.712-1.188.557-.328 1.02-.532 1.393-.614v-.04zm.318.614c-.504.437-.902.888-1.194 1.352-.266.438-.452.874-.558 1.312-.053.163-.093.327-.12.49v.41c0 .957.292 1.886.876 2.787.61.902 1.353 1.707 2.23 2.418.158.11.304.218.437.327.16.11.318.22.477.328.77.492 1.526.888 2.27 1.188.77.273 1.498.41 2.188.41.77.027 1.473-.164 2.11-.573.636-.41 1.167-1.08 1.592-2.008-.77-.547-1.646-1.175-2.627-1.885-.982-.71-1.99-1.475-3.025-2.294-.823-.656-1.632-1.34-2.428-2.05-.796-.737-1.54-1.46-2.23-2.17v-.042zm8.12-3.85c.53-.41.968-.903 1.313-1.476.345-.6.597-1.216.756-1.844.053-.273.093-.546.12-.82.053-.273.08-.532.08-.778.026-.874-.133-1.612-.478-2.212-.345-.6-.836-.902-1.473-.902h-.198c-.823 0-1.5.37-2.03 1.106-.53.738-.796 1.598-.796 2.582v.327c.027.11.04.22.04.328.106.738.358 1.434.756 2.09.425.655 1.062 1.202 1.91 1.64v-.042z"/></defs></svg>

