<svg width="32" height="32" viewBox="0 0 32 32" xmlns="http://www.w3.org/2000/svg" xmlns:xlink="http://www.w3.org/1999/xlink"><title>&amp;</title><use xlink:href="#a" fill="#FF5A77"/><defs><path id="a" d="M7.045 12.62c-.425-.71-.743-1.42-.955-2.13-.213-.738-.32-1.45-.32-2.13 0-2.187.824-4.07 2.47-5.656C9.883 1.12 11.687.232 13.65.04c.132-.026.252-.04.358-.04h.796c.053 0 .106.014.16.04h.198c1.486.165 2.587.752 3.304 1.763.743.983 1.127 2.062 1.154 3.237 0 1.065-.32 2.062-.955 2.99-.637.902-1.592 1.476-2.866 1.722.107.054.2.123.28.204.08.055.172.11.278.164.504.383.97.765 1.393 1.148.452.355.89.696 1.315 1.024.238.164.477.34.716.533.24.164.48.314.717.45l.08-.246c.053-.11.093-.22.12-.328.16-.465.318-1.01.477-1.64.186-.627.398-1.27.637-1.925.425-1.175 1.01-2.254 1.752-3.237.743-.983 1.818-1.53 3.224-1.64h.398c1.353-.026 2.494.425 3.423 1.353.93.93 1.393 2.022 1.393 3.278 0 .192-.013.397-.04.616-.026.218-.066.437-.12.655-.105.302-.238.616-.397.944-.16.3-.358.6-.597.9-.32.356-.677.63-1.075.82-.397.165-.808.246-1.233.246-.85 0-1.63-.273-2.348-.82-.717-.573-1.09-1.31-1.115-2.212 0-.437.106-.887.318-1.352.212-.49.57-.997 1.075-1.516.477-.49.85-.9 1.114-1.23.292-.327.133-.573-.477-.736h-.16c-.026-.028-.066-.04-.12-.04-.052-.03-.105-.042-.158-.042h-.12c-1.22 0-2.255.833-3.104 2.5-.823 1.638-1.592 3.74-2.31 6.31 1.726.955 3.066 2.21 4.02 3.768.957 1.53 1.5 3.128 1.633 4.794.027.11.04.232.04.37v.368c0 2.267-.836 4.302-2.508 6.105-1.67 1.775-4.272 2.663-7.8 2.663h-.677c-.21 0-.437-.014-.676-.04v-.984c.133.027.252.04.358.04h.36c1.564 0 2.758-.49 3.58-1.474.823-.984 1.235-2.063 1.235-3.237V26.1c-.027-.765-.24-1.49-.637-2.172-.398-.71-.982-1.243-1.752-1.598-.796 2.568-1.99 4.453-3.582 5.655-1.592 1.2-3.263 1.87-5.015 2.007-.13.028-.264.04-.397.04h-.358c-1.194 0-2.348-.217-3.462-.654-1.115-.437-2.07-1.066-2.866-1.885-.955-.983-1.632-1.953-2.03-2.91C.2 23.63 0 22.686 0 21.758c0-1.503.41-2.882 1.234-4.14.822-1.282 1.725-2.334 2.706-3.154.584-.49 1.155-.887 1.712-1.188.557-.328 1.02-.532 1.393-.614v-.04zm.318.614c-.504.437-.902.888-1.194 1.352-.266.438-.452.874-.558 1.312-.053.163-.093.327-.12.49v.41c0 .957.292 1.886.876 2.787.61.902 1.353 1.707 2.23 2.418.158.11.304.218.437.327.16.11.318.22.477.328.77.492 1.526.888 2.27 1.188.77.273 1.498.41 2.188.41.77.027 1.473-.164 2.11-.573.636-.41 1.167-1.08 1.592-2.008-.77-.547-1.646-1.175-2.627-1.885-.982-.71-1.99-1.475-3.025-2.294-.823-.656-1.632-1.34-2.428-2.05-.796-.737-1.54-1.46-2.23-2.17v-.042zm8.12-3.85c.53-.41.968-.903 1.313-1.476.345-.6.597-1.216.756-1.844.053-.273.093-.546.12-.82.053-.273.08-.532.08-.778.026-.874-.133-1.612-.478-2.212-.345-.6-.836-.902-1.473-.902h-.198c-.823 0-1.5.37-2.03 1.106-.53.738-.796 1.598-.796 2.582v.327c.027.11.04.22.04.328.106.738.358 1.434.756 2.09.425.655 1.062 1.202 1.91 1.64v-.042z"/></defs></svg>