<svg width="176" height="32" viewBox="0 0 176 32" version="1.1" xmlns="http://www.w3.org/2000/svg" xmlns:xlink="http://www.w3.org/1999/xlink">
<title>Logo</title>
<desc>Created using Figma</desc>
<g id="Canvas" transform="translate(-1859 -348)">
<clipPath id="clip-0" clip-rule="evenodd">
<path d="M 1859 348L 2035 348L 2035 380L 1859 380L 1859 348Z" fill="#FFFFFF"/>
</clipPath>
<g id="Logo" clip-path="url(#clip-0)">
<g id="LaMari&#195;&#169;e">
<use xlink:href="#path0_fill" transform="translate(1900 349)" fill="#333333"/>
<use xlink:href="#path1_fill" transform="translate(1900 349)" fill="#333333"/>
<use xlink:href="#path2_fill" transform="translate(1900 349)" fill="#333333"/>
<use xlink:href="#path3_fill" transform="translate(1900 349)" fill="#333333"/>
<use xlink:href="#path4_fill" transform="translate(1900 349)" fill="#333333"/>
<use xlink:href="#path5_fill" transform="translate(1900 349)" fill="#333333"/>
<use xlink:href="#path6_fill" transform="translate(1900 349)" fill="#333333"/>
<use xlink:href="#path7_fill" transform="translate(1900 349)" fill="#333333"/>
</g>
<g id="&#38;">
<use xlink:href="#path8_fill" transform="translate(1859 348)" fill="#FF5A77"/>
</g>
</g>
</g>
<defs>
<path id="path0_fill" d="M 9.90727 4.53125C 9.1495 4.5625 8.59654 4.64583 8.24838 4.78125C 7.91046 4.91667 7.67493 5.16667 7.54181 5.53125C 7.41893 5.89583 7.35749 6.47917 7.35749 7.28125L 7.35749 23.5312C 7.35749 24.2188 7.40357 24.7187 7.49573 25.0312C 7.59813 25.3333 7.78245 25.5417 8.0487 25.6563C 8.32518 25.7604 8.75526 25.8125 9.33895 25.8125L 10.875 25.8125C 11.8273 25.8125 12.6977 25.5156 13.4862 24.9219C 14.2849 24.3281 14.9505 23.4948 15.483 22.4219C 16.0257 21.3385 16.3995 20.0885 16.6043 18.6719L 17.3262 18.6719C 17.2648 19.401 17.234 20.3385 17.234 21.4844C 17.234 23.5365 17.3057 25.224 17.4491 26.5469C 16.0257 26.4844 13.6244 26.4531 10.2452 26.4531C 5.67812 26.4531 2.26306 26.4844 0 26.5469L 0 25.9062C 0.696325 25.875 1.20321 25.7917 1.52065 25.6563C 1.83809 25.5208 2.05313 25.2708 2.16578 24.9062C 2.28866 24.5417 2.3501 23.9583 2.3501 23.1562L 2.3501 7.28125C 2.3501 6.47917 2.28866 5.89583 2.16578 5.53125C 2.05313 5.16667 1.83809 4.91667 1.52065 4.78125C 1.20321 4.64583 0.696325 4.5625 0 4.53125L 0 3.89063C 1.05473 3.95313 2.7085 3.98438 4.96131 3.98438C 7.09125 3.98438 8.7399 3.95313 9.90727 3.89063L 9.90727 4.53125Z"/>
<path id="path1_fill" d="M 27.6175 13.0469C 27.6175 12.1615 27.4076 11.4635 26.9877 10.9531C 26.5781 10.4427 25.933 10.1875 25.0523 10.1875C 24.6427 10.1875 24.2331 10.2552 23.8235 10.3906C 23.4139 10.5156 23.076 10.7083 22.8098 10.9688C 23.3934 11.1667 23.8491 11.4792 24.1768 11.9062C 24.5045 12.3229 24.6683 12.849 24.6683 13.4844C 24.6683 13.9219 24.5608 14.3177 24.3458 14.6719C 24.141 15.0156 23.844 15.2917 23.4549 15.5C 23.0658 15.6979 22.6203 15.7969 22.1186 15.7969C 21.4427 15.7969 20.9 15.5625 20.4904 15.0938C 20.091 14.625 19.8913 14.0365 19.8913 13.3281C 19.8913 12.224 20.475 11.3281 21.6424 10.6406C 22.9224 9.92188 24.5199 9.5625 26.4347 9.5625C 28.5852 9.5625 30.1161 10.0417 31.0274 11C 31.4677 11.4479 31.7647 12.0052 31.9183 12.6719C 32.0719 13.3385 32.1487 14.2708 32.1487 15.4688L 32.1487 24.1719C 32.1487 24.6927 32.1948 25.0625 32.2869 25.2812C 32.3894 25.4896 32.5634 25.5938 32.8092 25.5938C 33.1471 25.5938 33.5362 25.4115 33.9766 25.0469L 34.2991 25.5938C 33.8178 26 33.2956 26.2969 32.7324 26.4844C 32.1692 26.6719 31.4933 26.7656 30.7049 26.7656C 29.6399 26.7656 28.8719 26.526 28.4008 26.0469C 27.9298 25.5677 27.6943 24.9427 27.6943 24.1719C 27.1823 25.0365 26.5115 25.6875 25.6821 26.125C 24.8527 26.5521 23.9669 26.7656 23.0248 26.7656C 21.8267 26.7656 20.8641 26.4479 20.1371 25.8125C 19.4203 25.1667 19.0619 24.2708 19.0619 23.125C 19.0619 22.0104 19.4203 21.0885 20.1371 20.3594C 20.8539 19.6302 21.965 18.9844 23.4702 18.4219C 23.6341 18.3594 24.1666 18.1562 25.0677 17.8125C 25.9688 17.4583 26.6191 17.099 27.0184 16.7344C 27.4178 16.3698 27.6175 15.9688 27.6175 15.5312L 27.6175 13.0469ZM 27.6175 16.8438C 27.4844 17.0729 27.2642 17.3125 26.957 17.5625C 26.66 17.8021 26.2299 18.099 25.6667 18.4531C 25.0011 18.9219 24.4789 19.4531 24.1 20.0469C 23.7211 20.6302 23.5317 21.3594 23.5317 22.2344C 23.5317 23.0677 23.7109 23.6927 24.0693 24.1094C 24.4277 24.5156 24.8987 24.7188 25.4824 24.7188C 26.3119 24.7188 27.0236 24.2812 27.6175 23.4062L 27.6175 16.8438Z"/>
<path id="path2_fill" d="M 63.57 4.53125C 62.8634 4.5625 62.3514 4.64583 62.034 4.78125C 61.7166 4.91667 61.4964 5.16667 61.3735 5.53125C 61.2609 5.89583 61.2046 6.47917 61.2046 7.28125L 61.2046 23.1562C 61.2046 23.9583 61.2609 24.5417 61.3735 24.9062C 61.4964 25.2708 61.7166 25.5208 62.034 25.6563C 62.3617 25.7917 62.8737 25.875 63.57 25.9062L 63.57 26.5469C 62.4026 26.4844 60.754 26.4531 58.6241 26.4531C 56.3815 26.4531 54.7277 26.4844 53.6627 26.5469L 53.6627 25.9062C 54.4205 25.875 54.9684 25.7917 55.3063 25.6563C 55.6544 25.5208 55.89 25.2708 56.0128 24.9062C 56.146 24.5417 56.2125 23.9583 56.2125 23.1562L 56.2125 6.42188L 48.6246 26.5781L 48.1177 26.5781L 39.6236 5.96875L 39.6236 21.2969C 39.6236 22.5573 39.6902 23.4844 39.8233 24.0781C 39.9564 24.6615 40.2278 25.0885 40.6374 25.3594C 41.0572 25.6302 41.7382 25.8125 42.6803 25.9062L 42.6803 26.5469C 41.8713 26.4844 40.7398 26.4531 39.2857 26.4531C 38.1286 26.4531 37.2172 26.4844 36.5516 26.5469L 36.5516 25.9062C 37.2377 25.8125 37.7394 25.6354 38.0569 25.375C 38.3846 25.1042 38.6047 24.6979 38.7174 24.1562C 38.8402 23.6042 38.9017 22.7813 38.9017 21.6875L 38.9017 7.28125C 38.9017 6.47917 38.8402 5.89583 38.7174 5.53125C 38.6047 5.16667 38.3897 4.91667 38.0722 4.78125C 37.7548 4.64583 37.2479 4.5625 36.5516 4.53125L 36.5516 3.89063C 37.2172 3.95313 38.1286 3.98438 39.2857 3.98438C 41.2108 3.98438 42.8646 3.95313 44.247 3.89063L 50.5907 19.4375L 56.3968 3.98438L 58.6241 3.98438C 60.754 3.98438 62.4026 3.95313 63.57 3.89063L 63.57 4.53125Z"/>
<path id="path3_fill" d="M 72.8991 13.0469C 72.8991 12.1615 72.6892 11.4635 72.2693 10.9531C 71.8597 10.4427 71.2146 10.1875 70.3339 10.1875C 69.9243 10.1875 69.5147 10.2552 69.1051 10.3906C 68.6955 10.5156 68.3576 10.7083 68.0914 10.9688C 68.675 11.1667 69.1307 11.4792 69.4584 11.9062C 69.7861 12.3229 69.9499 12.849 69.9499 13.4844C 69.9499 13.9219 69.8424 14.3177 69.6274 14.6719C 69.4226 15.0156 69.1256 15.2917 68.7365 15.5C 68.3474 15.6979 67.9019 15.7969 67.4002 15.7969C 66.7243 15.7969 66.1816 15.5625 65.772 15.0938C 65.3726 14.625 65.1729 14.0365 65.1729 13.3281C 65.1729 12.224 65.7566 11.3281 66.924 10.6406C 68.204 9.92188 69.8014 9.5625 71.7163 9.5625C 73.8668 9.5625 75.3977 10.0417 76.309 11C 76.7493 11.4479 77.0463 12.0052 77.1999 12.6719C 77.3535 13.3385 77.4303 14.2708 77.4303 15.4688L 77.4303 24.1719C 77.4303 24.6927 77.4764 25.0625 77.5686 25.2812C 77.671 25.4896 77.845 25.5938 78.0908 25.5938C 78.4287 25.5938 78.8178 25.4115 79.2582 25.0469L 79.5807 25.5938C 79.0994 26 78.5772 26.2969 78.014 26.4844C 77.4508 26.6719 76.7749 26.7656 75.9865 26.7656C 74.9215 26.7656 74.1535 26.526 73.6824 26.0469C 73.2114 25.5677 72.9759 24.9427 72.9759 24.1719C 72.4639 25.0365 71.7931 25.6875 70.9637 26.125C 70.1343 26.5521 69.2485 26.7656 68.3064 26.7656C 67.1083 26.7656 66.1457 26.4479 65.4187 25.8125C 64.7019 25.1667 64.3435 24.2708 64.3435 23.125C 64.3435 22.0104 64.7019 21.0885 65.4187 20.3594C 66.1355 19.6302 67.2466 18.9844 68.7518 18.4219C 68.9157 18.3594 69.4482 18.1562 70.3493 17.8125C 71.2504 17.4583 71.9007 17.099 72.3 16.7344C 72.6994 16.3698 72.8991 15.9688 72.8991 15.5312L 72.8991 13.0469ZM 72.8991 16.8438C 72.766 17.0729 72.5458 17.3125 72.2386 17.5625C 71.9416 17.8021 71.5115 18.099 70.9483 18.4531C 70.2827 18.9219 69.7605 19.4531 69.3816 20.0469C 69.0027 20.6302 68.8133 21.3594 68.8133 22.2344C 68.8133 23.0677 68.9925 23.6927 69.3509 24.1094C 69.7093 24.5156 70.1803 24.7188 70.764 24.7188C 71.5935 24.7188 72.3052 24.2812 72.8991 23.4062L 72.8991 16.8438Z"/>
<path id="path4_fill" d="M 87.0457 12.625C 87.4451 11.7188 88.0185 10.9844 88.7661 10.4219C 89.5238 9.84896 90.3789 9.5625 91.3312 9.5625C 91.9661 9.5625 92.4986 9.70312 92.9287 9.98438C 93.3587 10.2656 93.6762 10.6302 93.881 11.0781C 94.0858 11.5156 94.1882 11.9896 94.1882 12.5C 94.1882 13.2917 93.9629 13.9375 93.5124 14.4375C 93.0618 14.9375 92.4678 15.1875 91.7306 15.1875C 91.0138 15.1875 90.4454 15.0052 90.0256 14.6406C 89.616 14.2656 89.4112 13.7656 89.4112 13.1406C 89.4112 12.1198 89.872 11.2865 90.7936 10.6406C 90.6605 10.6094 90.5325 10.5938 90.4096 10.5938C 90.2662 10.5938 90.1024 10.6198 89.9181 10.6719C 89.3856 10.7552 88.8992 11.0156 88.4589 11.4531C 88.0185 11.8802 87.6704 12.3958 87.4144 13C 87.1686 13.6042 87.0457 14.1927 87.0457 14.7656L 87.0457 23.25C 87.0457 24.2396 87.2813 24.9271 87.7523 25.3125C 88.2233 25.6875 88.976 25.875 90.0102 25.875L 90.0102 26.5469C 87.3888 26.4635 85.7196 26.4219 85.0028 26.4219C 84.3372 26.4219 82.8371 26.4635 80.5023 26.5469L 80.5023 25.875C 81.0041 25.875 81.3983 25.8073 81.6851 25.6719C 81.982 25.5365 82.1919 25.3021 82.3148 24.9688C 82.4479 24.6354 82.5145 24.1719 82.5145 23.5781L 82.5145 13.4844C 82.5145 12.4948 82.366 11.7812 82.0691 11.3438C 81.7721 10.8958 81.2499 10.6719 80.5023 10.6719L 80.5023 10C 81.1679 10.0625 81.8182 10.0938 82.4531 10.0938C 84.3065 10.0938 85.8374 9.94792 87.0457 9.65625L 87.0457 12.625Z"/>
<path id="path5_fill" d="M 99.2724 1.75C 100.143 1.75 100.834 1.96875 101.346 2.40625C 101.868 2.84375 102.129 3.44271 102.129 4.20313C 102.129 4.97396 101.868 5.57812 101.346 6.01562C 100.834 6.45312 100.143 6.67188 99.2724 6.67188C 98.3815 6.67188 97.6801 6.45312 97.1681 6.01562C 96.656 5.57812 96.4 4.97396 96.4 4.20313C 96.4 3.44271 96.656 2.84375 97.1681 2.40625C 97.6801 1.96875 98.3815 1.75 99.2724 1.75ZM 101.73 23.5781C 101.73 24.1719 101.797 24.6354 101.93 24.9688C 102.063 25.3021 102.273 25.5365 102.559 25.6719C 102.846 25.8073 103.24 25.875 103.742 25.875L 103.742 26.5469C 101.653 26.4635 100.261 26.4219 99.5642 26.4219C 98.8986 26.4219 97.4394 26.4635 95.1866 26.5469L 95.1866 25.875C 95.6884 25.875 96.0826 25.8073 96.3693 25.6719C 96.6663 25.5365 96.8762 25.3021 96.9991 24.9688C 97.1322 24.6354 97.1988 24.1719 97.1988 23.5781L 97.1988 13.4844C 97.1988 12.4948 97.0503 11.7812 96.7533 11.3438C 96.4564 10.8958 95.9341 10.6719 95.1866 10.6719L 95.1866 10C 95.8522 10.0625 96.5024 10.0938 97.1373 10.0938C 98.9908 10.0938 100.522 9.94792 101.73 9.65625L 101.73 23.5781Z"/>
<path id="path6_fill" d="M 110.316 16.6562C 110.286 16.9687 110.27 17.4688 110.27 18.1563C 110.27 19.5729 110.465 20.75 110.854 21.6875C 111.243 22.6146 111.745 23.2969 112.359 23.7344C 112.984 24.1615 113.649 24.375 114.356 24.375C 116.087 24.375 117.474 23.5208 118.519 21.8125L 119.072 22C 118.805 22.875 118.391 23.6927 117.827 24.4531C 117.274 25.2031 116.568 25.8177 115.708 26.2969C 114.858 26.7656 113.885 27 112.789 27C 111.345 27 110.076 26.6875 108.98 26.0625C 107.895 25.4375 107.045 24.4896 106.43 23.2188C 105.826 21.9375 105.524 20.349 105.524 18.4531C 105.524 16.5156 105.852 14.8854 106.507 13.5625C 107.162 12.2292 108.069 11.2292 109.226 10.5625C 110.383 9.89583 111.719 9.5625 113.235 9.5625C 117.177 9.5625 119.148 11.9271 119.148 16.6562L 110.316 16.6562ZM 115.185 16.0469C 115.216 14.3802 115.047 12.9948 114.679 11.8906C 114.32 10.7865 113.772 10.2344 113.035 10.2344C 112.288 10.2344 111.663 10.7083 111.161 11.6562C 110.67 12.5938 110.368 14.0573 110.255 16.0469L 115.185 16.0469ZM 110.9 7.09375C 111.504 5.97917 111.98 4.96354 112.328 4.04688C 112.687 3.11979 112.958 2.42708 113.143 1.96875C 113.337 1.51042 113.588 1.10417 113.895 0.75C 114.069 0.510417 114.284 0.328125 114.54 0.203125C 114.807 0.0677083 115.078 0 115.354 0C 115.785 0 116.153 0.135417 116.46 0.40625C 116.849 0.71875 117.044 1.13021 117.044 1.64062C 117.044 2.10938 116.885 2.54167 116.568 2.9375C 116.24 3.35417 115.754 3.79688 115.109 4.26562C 114.464 4.73438 113.849 5.19271 113.265 5.64062C 112.682 6.07812 112.006 6.65625 111.238 7.375L 110.9 7.09375Z"/>
<path id="path7_fill" d="M 126.168 16.6562C 126.137 16.9687 126.122 17.4688 126.122 18.1563C 126.122 19.5729 126.316 20.75 126.706 21.6875C 127.095 22.6146 127.596 23.2969 128.211 23.7344C 128.835 24.1615 129.501 24.375 130.208 24.375C 131.938 24.375 133.326 23.5208 134.37 21.8125L 134.923 22C 134.657 22.875 134.242 23.6927 133.679 24.4531C 133.126 25.2031 132.42 25.8177 131.559 26.2969C 130.709 26.7656 129.737 27 128.641 27C 127.197 27 125.927 26.6875 124.832 26.0625C 123.746 25.4375 122.896 24.4896 122.282 23.2188C 121.678 21.9375 121.376 20.349 121.376 18.4531C 121.376 16.5156 121.703 14.8854 122.359 13.5625C 123.014 12.2292 123.92 11.2292 125.077 10.5625C 126.234 9.89583 127.571 9.5625 129.086 9.5625C 133.029 9.5625 135 11.9271 135 16.6562L 126.168 16.6562ZM 131.037 16.0469C 131.068 14.3802 130.899 12.9948 130.53 11.8906C 130.172 10.7865 129.624 10.2344 128.887 10.2344C 128.139 10.2344 127.514 10.7083 127.013 11.6562C 126.521 12.5938 126.219 14.0573 126.106 16.0469L 131.037 16.0469Z"/>
<path id="path8_fill" d="M 7.04478 12.6197C 6.62023 11.9095 6.30182 11.1993 6.08955 10.4891C 5.87728 9.7516 5.77114 9.0414 5.77114 8.35851C 5.77114 6.17328 6.5937 4.28852 8.23881 2.70423C 9.88391 1.11993 11.6882 0.232181 13.6517 0.0409731C 13.7844 0.0136577 13.9038 0 14.0099 0L 14.806 0C 14.859 0 14.9121 0.0136577 14.9652 0.0409731C 15.0448 0.0409731 15.1111 0.0409731 15.1642 0.0409731C 16.6501 0.204866 17.7512 0.792147 18.4677 1.80282C 19.2106 2.78617 19.5954 3.86513 19.6219 5.03969C 19.6219 6.10499 19.3035 7.10201 18.6667 8.03073C 18.0299 8.93214 17.0746 9.50576 15.801 9.7516C 15.9071 9.80623 16 9.87452 16.0796 9.95647C 16.1592 10.0111 16.2521 10.0657 16.3582 10.1204C 16.8624 10.5028 17.3267 10.8852 17.7512 11.2676C 18.2023 11.6227 18.6401 11.9641 19.0647 12.2919C 19.3035 12.4558 19.5423 12.6334 19.7811 12.8246C 20.0199 12.9885 20.2587 13.1387 20.4975 13.2753C 20.524 13.1933 20.5506 13.1114 20.5771 13.0294C 20.6302 12.9202 20.67 12.8109 20.6965 12.7017C 20.8557 12.2373 21.0149 11.691 21.1741 11.0627C 21.3599 10.4345 21.5721 9.79257 21.8109 9.137C 22.2355 7.96244 22.8192 6.88348 23.5622 5.90013C 24.3051 4.91677 25.3798 4.37047 26.7861 4.2612L 27.1841 4.2612C 28.5373 4.23389 29.6783 4.68459 30.607 5.61332C 31.5357 6.54204 32 7.63466 32 8.89116C 32 9.08237 31.9867 9.28724 31.9602 9.50576C 31.9337 9.72429 31.8939 9.94281 31.8408 10.1613C 31.7347 10.4618 31.602 10.7759 31.4428 11.1037C 31.2836 11.4042 31.0846 11.7047 30.8458 12.0051C 30.5274 12.3602 30.1692 12.6334 29.7711 12.8246C 29.3731 12.9885 28.9619 13.0704 28.5373 13.0704C 27.6882 13.0704 26.9055 12.7973 26.1891 12.251C 25.4726 11.6773 25.1012 10.9398 25.0746 10.0384C 25.0746 9.60137 25.1808 9.15066 25.393 8.6863C 25.6053 8.19462 25.9635 7.68929 26.4677 7.17029C 26.9453 6.67862 27.3167 6.26889 27.5821 5.9411C 27.874 5.61332 27.7148 5.36748 27.1045 5.20359C 27.0514 5.20359 26.9983 5.20359 26.9453 5.20359C 26.9187 5.17627 26.8789 5.16261 26.8259 5.16261C 26.7728 5.1353 26.7197 5.12164 26.6667 5.12164L 26.5473 5.12164C 25.3267 5.12164 24.2919 5.95476 23.4428 7.621C 22.6202 9.25992 21.8507 11.3632 21.1343 13.9309C 22.859 14.8869 24.199 16.1434 25.1542 17.7004C 26.1095 19.23 26.6534 20.828 26.7861 22.4942C 26.8126 22.6035 26.8259 22.7264 26.8259 22.863L 26.8259 23.2318C 26.8259 25.4989 25.99 27.5339 24.3184 29.3367C 22.6468 31.1123 20.0464 32 16.5174 32L 15.8408 32C 15.6285 32 15.403 31.9863 15.1642 31.959L 15.1642 30.9757C 15.2968 31.003 15.4163 31.0166 15.5224 31.0166L 15.8806 31.0166C 17.4461 31.0166 18.6401 30.525 19.4627 29.5416C 20.2852 28.5583 20.6965 27.4793 20.6965 26.3047L 20.6965 26.0999C 20.67 25.335 20.4577 24.6112 20.0597 23.9283C 19.6617 23.2181 19.0779 22.6854 18.3085 22.3303C 17.5124 24.898 16.3184 26.7828 14.7264 27.9846C 13.1343 29.1865 11.4627 29.8557 9.71144 29.9923C 9.57877 30.0196 9.4461 30.0333 9.31343 30.0333L 8.95522 30.0333C 7.76119 30.0333 6.60697 29.8148 5.49254 29.3777C 4.37811 28.9407 3.42289 28.3124 2.62687 27.493C 1.67164 26.5096 0.995025 25.5399 0.597015 24.5839C 0.199005 23.6278 0 22.6854 0 21.7567C 0 20.2544 0.411277 18.8749 1.23383 17.6184C 2.05638 16.3346 2.95854 15.283 3.9403 14.4635C 4.52405 13.9718 5.09453 13.5758 5.65174 13.2753C 6.20896 12.9475 6.6733 12.7426 7.04478 12.6607L 7.04478 12.6197ZM 7.36318 13.2343C 6.85904 13.6714 6.46103 14.1221 6.16915 14.5864C 5.90381 15.0235 5.71808 15.4605 5.61194 15.8976C 5.55887 16.0615 5.51907 16.2254 5.49254 16.3892C 5.49254 16.5258 5.49254 16.6624 5.49254 16.799C 5.49254 17.755 5.78441 18.6837 6.36816 19.5851C 6.97844 20.4866 7.72139 21.2924 8.59702 22.0026C 8.75622 22.1118 8.90216 22.2211 9.03483 22.3303C 9.19403 22.4396 9.35323 22.5489 9.51244 22.6581C 10.2819 23.1498 11.0381 23.5459 11.7811 23.8463C 12.5506 24.1195 13.2803 24.2561 13.9701 24.2561C 14.7396 24.2834 15.4428 24.0922 16.0796 23.6825C 16.7164 23.2727 17.2471 22.6035 17.6716 21.6748C 16.9022 21.1285 16.0265 20.5002 15.0448 19.79C 14.063 19.0798 13.0547 18.315 12.0199 17.4955C 11.1973 16.84 10.3881 16.1571 9.59204 15.4469C 8.79602 14.7093 8.05307 13.9855 7.36318 13.2753L 7.36318 13.2343ZM 15.4826 9.38284C 16.0133 8.97311 16.4511 8.48143 16.796 7.90781C 17.141 7.30687 17.393 6.69227 17.5522 6.06402C 17.6053 5.79087 17.6451 5.51771 17.6716 5.24456C 17.7247 4.9714 17.7512 4.71191 17.7512 4.46607C 17.7778 3.59198 17.6186 2.85446 17.2736 2.25352C 16.9287 1.65258 16.4378 1.35211 15.801 1.35211L 15.602 1.35211C 14.7794 1.35211 14.1028 1.72087 13.5721 2.45839C 13.0415 3.1959 12.7761 4.05634 12.7761 5.03969C 12.7761 5.14895 12.7761 5.25822 12.7761 5.36748C 12.8027 5.47674 12.8159 5.586 12.8159 5.69526C 12.9221 6.43278 13.1741 7.12932 13.5721 7.78489C 13.9967 8.44046 14.6335 8.98677 15.4826 9.42382L 15.4826 9.38284Z"/>
</defs>
</svg>
